<svg xmlns="http://www.w3.org/2000/svg" width="25" height="25" fill="none"><path fill="#838383" fill-rule="evenodd" d="M4.426 24.327c1.574.119 4.268.274 8.142.274s6.568-.143 8.141-.274a3.82 3.82 0 0 0 3.505-3.505c.12-1.561.274-4.232.274-8.141 0-3.91-.143-6.58-.274-8.142a3.82 3.82 0 0 0-3.504-3.505C19.135.915 16.454.76 12.567.76S6 .903 4.426 1.034A3.83 3.83 0 0 0 .922 4.54C.802 6.112.648 8.795.648 12.681s.143 6.568.274 8.141a3.82 3.82 0 0 0 3.504 3.505M9.16 3.187a132 132 0 0 1 3.409-.043c3.815 0 6.425.155 7.95.274.728.06 1.264.608 1.324 1.324.067.774.136 1.824.189 3.17H9.159zm0 7.11h12.937a139 139 0 0 1 0 4.768H9.158zm-2.384 4.768v-4.768H3.04q-.02 1.107-.021 2.395 0 1.274.02 2.373zm-3.67 2.384h3.67v4.655a79 79 0 0 1-2.158-.138 1.42 1.42 0 0 1-1.323-1.323 69 69 0 0 1-.19-3.194m6.054 0v4.747c1.007.027 2.143.045 3.409.045 3.803 0 6.413-.143 7.95-.275a1.42 1.42 0 0 0 1.324-1.323c.06-.773.131-1.833.185-3.194zM4.617 3.419a62 62 0 0 1 2.158-.144v4.637H3.11c.054-1.345.124-2.397.184-3.17a1.42 1.42 0 0 1 1.323-1.324" clip-rule="evenodd"/></svg>