<svg xmlns="http://www.w3.org/2000/svg" width="14" height="14" viewBox="0 0 14 14" fill="none">
  <path d="M5.11393 4.85331V3.58664C5.11393 3.47996 5.15362 3.39993 5.24607 3.34666L7.77008 1.87999C8.11365 1.68 8.52331 1.58671 8.94611 1.58671C10.5318 1.58671 11.5362 2.82674 11.5362 4.14668C11.5362 4.24 11.5362 4.34668 11.5229 4.45335L8.90645 2.90666C8.7479 2.81337 8.58927 2.81337 8.43072 2.90666L5.11393 4.85331ZM11.0075 9.78668V6.75995C11.0075 6.57324 10.9282 6.43991 10.7697 6.3466L7.45287 4.39995L8.53645 3.77324C8.62893 3.71997 8.70824 3.71997 8.80072 3.77324L11.3247 5.2399C12.0516 5.66662 12.5404 6.57324 12.5404 7.45319C12.5404 8.46649 11.9458 9.39987 11.0075 9.78657V9.78668ZM4.33429 7.12003L3.25072 6.48007C3.15827 6.4268 3.11858 6.34674 3.11858 6.24006V3.30675C3.11858 1.88013 4.20215 0.800053 5.66898 0.800053C6.22405 0.800053 6.7393 0.986763 7.17549 1.32008L4.57227 2.84013C4.41375 2.93342 4.33443 3.06675 4.33443 3.25348V7.12014L4.33429 7.12003ZM6.66665 8.47999L5.11393 7.60002V5.73342L6.66665 4.85345L8.21926 5.73342V7.60002L6.66665 8.47999ZM7.66433 12.5334C7.10928 12.5334 6.59403 12.3467 6.15785 12.0134L8.76104 10.4933C8.91959 10.4 8.9989 10.2667 8.9989 10.08V6.2133L10.0957 6.85326C10.1882 6.90653 10.2279 6.98657 10.2279 7.09327V10.0266C10.2279 11.4532 9.13104 12.5333 7.66433 12.5333V12.5334ZM4.5325 9.56007L2.00849 8.09343C1.28164 7.66668 0.792775 6.76009 0.792775 5.88012C0.792775 4.85345 1.40064 3.93346 2.3388 3.54676V6.58675C2.3388 6.77346 2.41815 6.90678 2.57667 7.0001L5.88032 8.93336L4.79675 9.56007C4.7043 9.61334 4.62495 9.61334 4.5325 9.56007ZM4.38722 11.7467C2.89399 11.7467 1.79717 10.6134 1.79717 9.21338C1.79717 9.1067 1.81042 9.00002 1.82355 8.89334L4.42677 10.4134C4.58529 10.5067 4.74395 10.5067 4.90248 10.4134L8.21926 8.48013V9.74681C8.21926 9.85349 8.17961 9.93352 8.08713 9.98679L5.56314 11.4535C5.21955 11.6534 4.80989 11.7467 4.38709 11.7467H4.38722ZM7.66433 13.3333C9.26329 13.3333 10.5979 12.1867 10.9019 10.6667C12.3819 10.28 13.3333 8.87995 13.3333 7.45333C13.3333 6.51994 12.9369 5.61335 12.2233 4.95999C12.2894 4.67997 12.3291 4.39995 12.3291 4.12006C12.3291 2.21342 10.7962 0.786659 9.02542 0.786659C8.66872 0.786659 8.32513 0.83993 7.98154 0.960003C7.3868 0.373308 6.56751 0 5.66898 0C4.07004 0 2.73547 1.1466 2.43142 2.66665C0.951435 3.05335 0 4.45336 0 5.87998C0 6.81336 0.396387 7.71995 1.10998 8.37331C1.04391 8.65334 1.00426 8.93336 1.00426 9.21327C1.00426 11.1199 2.53715 12.5466 4.30788 12.5466C4.66461 12.5466 5.0082 12.4934 5.3518 12.3733C5.94639 12.96 6.76569 13.3333 7.66433 13.3333Z" fill="#EEEEEE"/>
</svg>