<svg preserveAspectRatio="none" overflow="visible" style="display: block;" width="11" height="11" viewBox="0 0 11 11" fill="none" xmlns="http://www.w3.org/2000/svg">
<g id="pop-view-whiteboard" clip-path="url(#clip0_0_634)">
<path id="Vector" fill-rule="evenodd" clip-rule="evenodd" d="M8.64801 0.795625C9.4857 0.863685 10.1363 1.5143 10.2044 2.35199C10.2575 3.00598 10.3125 4.03633 10.3125 5.5C10.3125 6.96367 10.2575 7.99402 10.2044 8.64801C10.1363 9.4857 9.4857 10.1363 8.64801 10.2044C7.99402 10.2575 6.96367 10.3125 5.5 10.3125C4.03633 10.3125 3.00598 10.2575 2.35198 10.2044C1.51429 10.1363 0.863686 9.4857 0.795627 8.64801C0.742491 7.99402 0.6875 6.96366 0.6875 5.5C0.6875 4.03634 0.742489 3.00598 0.795625 2.35199C0.863685 1.5143 1.5143 0.863686 2.35198 0.795627C3.00598 0.742491 4.03634 0.6875 5.5 0.6875C6.96366 0.6875 7.99402 0.742489 8.64801 0.795625Z" fill="#E5484D"/>
<path id="Rectangle 128" d="M3.79674 4.23253C3.86244 3.75637 4.28217 3.4872 4.72918 3.66394C5.01887 3.77851 5.40167 3.95206 5.89672 4.21504C6.36626 4.46449 6.73487 4.68713 7.01878 4.8743C7.5044 5.19443 7.5044 5.81378 7.01878 6.13394C6.73487 6.3211 6.36626 6.54371 5.89672 6.79317C5.40167 7.05618 5.01887 7.22973 4.72918 7.34427C4.28217 7.52104 3.86244 7.25187 3.79674 6.7757C3.75084 6.44312 3.71289 6.01395 3.71289 5.5041C3.71289 4.99428 3.75084 4.56509 3.79674 4.23253Z" fill="white"/>
</g>
<defs>
<clipPath id="clip0_0_634">
<rect width="11" height="11" fill="white"/>
</clipPath>
</defs>
</svg>
